<svg width="12" height="12" viewBox="0 0 12 12" fill="none" xmlns="http://www.w3.org/2000/svg">
<path d="M6.6662 2.42212L7.47278 4.03528C7.58276 4.25984 7.87607 4.47523 8.12354 4.51647L9.58547 4.75936C10.5204 4.91518 10.7403 5.59344 10.0667 6.26254L8.93012 7.39908C8.73764 7.59156 8.63223 7.96277 8.69181 8.22857L9.01719 9.63551C9.27383 10.7491 8.68265 11.1799 7.69734 10.5979L6.32707 9.78674C6.07959 9.64009 5.67172 9.64009 5.41966 9.78674L4.0494 10.5979C3.06867 11.1799 2.4729 10.7446 2.72954 9.63551L3.05492 8.22857C3.1145 7.96277 3.00909 7.59156 2.81661 7.39908L1.68007 6.26254C1.01097 5.59344 1.22637 4.91518 2.16127 4.75936L3.62319 4.51647C3.86608 4.47523 4.15938 4.25984 4.26937 4.03528L5.07595 2.42212C5.5159 1.54679 6.23083 1.54679 6.6662 2.42212Z" fill="#283841" stroke="#283841" stroke-width="0.549941" stroke-linecap="round" stroke-linejoin="round"/>
</svg>
