<svg width="44" height="36" viewBox="0 0 44 36" fill="none" xmlns="http://www.w3.org/2000/svg">
<rect width="42.4679" height="35.3899" rx="7.07798" transform="matrix(-1 0 0 1 43.3418 0.233948)" fill="#03C3F8"/>
<path d="M20.3371 24.2696H23.8761C27.0789 24.2696 28.4473 22.9012 28.4473 19.6984V16.1594C28.4473 12.9566 27.0789 11.5882 23.8761 11.5882H22.6964C22.4546 11.5882 22.254 11.7888 22.254 12.0306C22.254 12.2724 22.4546 12.473 22.6964 12.473H23.8761C26.5952 12.473 27.5625 13.4403 27.5625 16.1594V19.6984C27.5625 22.4175 26.5952 23.3849 23.8761 23.3849H20.3371C17.6179 23.3849 16.6506 22.4175 16.6506 19.6984V18.5188C16.6506 18.2769 16.4501 18.0764 16.2083 18.0764C15.9664 18.0764 15.7659 18.2769 15.7659 18.5188V19.6984C15.7659 22.9012 17.1343 24.2696 20.3371 24.2696Z" fill="white"/>
<path d="M24.172 21.2851C24.5318 21.2851 24.8621 21.1553 25.1039 20.9194C25.3929 20.6303 25.5168 20.2116 25.4519 19.7692L25.1983 17.9938C25.1511 17.6517 24.927 17.2093 24.6851 16.9675L20.0372 12.3196C18.8635 11.1458 17.672 11.1458 16.4983 12.3196C15.8553 12.9625 15.5663 13.6172 15.6253 14.272C15.6784 14.8028 15.9615 15.3219 16.4983 15.8527L21.1461 20.5006C21.388 20.7424 21.8303 20.9665 22.1724 21.0137L23.9478 21.2674C24.0245 21.2851 24.1012 21.2851 24.172 21.2851ZM19.412 12.9448L24.0599 17.5927C24.172 17.7048 24.3017 17.9643 24.3253 18.1177L24.5789 19.8931C24.6025 20.0641 24.5672 20.2057 24.4787 20.2941C24.3902 20.3826 24.2486 20.418 24.0776 20.3944L22.3022 20.1408C22.1488 20.1172 21.8834 19.9874 21.7772 19.8754L17.1294 15.2275C16.746 14.8441 16.5454 14.502 16.5159 14.1835C16.4806 13.8001 16.6811 13.3931 17.1294 12.9389C18.0731 11.9952 18.7219 12.2606 19.412 12.9448Z" fill="white"/>
<path d="M17.4774 16.649C17.5187 16.649 17.56 16.6431 17.5954 16.6313C19.1466 16.1948 20.3794 14.9621 20.8158 13.4108C20.8807 13.1749 20.7451 12.933 20.5091 12.8623C20.2732 12.7974 20.0314 12.933 19.9665 13.169C19.6126 14.4253 18.6158 15.4221 17.3594 15.776C17.1235 15.8409 16.9878 16.0886 17.0527 16.3246C17.1058 16.5251 17.2827 16.649 17.4774 16.649Z" fill="white"/>
</svg>
