<svg width="16" height="80" viewBox="0 0 16 80" fill="none" xmlns="http://www.w3.org/2000/svg">
<line y1="-0.5" x2="80" y2="-0.5" transform="matrix(-4.37114e-08 1 1 4.37114e-08 8.46875 0)" stroke="#CBCBCB" stroke-dasharray="5 5"/>
<path d="M13.3664 40.9133L10.253 42.2533L9.55971 42.5467C9.45305 42.6 9.35971 42.74 9.35971 42.86V44.9C9.35971 45.54 8.88638 46.3 8.31305 46.5933C8.11305 46.6933 7.87305 46.6933 7.67305 46.5933C7.10638 46.3 6.63305 45.5333 6.63305 44.8933L6.63305 42.8533C6.63305 42.7333 6.53971 42.5933 6.43305 42.54L2.63305 40.9067C2.21305 40.7333 1.87305 40.2067 1.87305 39.7533V38.8733C1.87305 38.3067 2.29971 38.0267 2.82638 38.2533L6.16638 39.6933C6.42638 39.8067 6.63971 39.6667 6.63971 39.38V38.64V37.44C6.63971 37.2867 6.55305 37.0667 6.44638 36.96L4.89971 35.4067C4.73971 35.2467 4.66638 34.9333 4.73971 34.7067L5.03971 33.8C5.15971 33.4067 5.60638 33.22 5.97305 33.4067L7.55971 34.74C7.79971 34.9467 8.19305 34.9467 8.43305 34.74L10.0197 33.4067C10.3864 33.2267 10.833 33.4067 10.9664 33.8L11.2664 34.7067C11.3397 34.9267 11.2664 35.2467 11.1064 35.4067L9.55971 36.96C9.44638 37.0667 9.35971 37.2867 9.35971 37.44V39.38C9.35971 39.6667 9.56638 39.8 9.83305 39.6933L13.173 38.2533C13.6997 38.0267 14.1264 38.3067 14.1264 38.8733L14.1264 39.7533C14.1264 40.2067 13.7864 40.7333 13.3664 40.9133Z" fill="#1D91CC"/>
</svg>
