<svg width="152" height="21" viewBox="0 0 152 21" fill="none" xmlns="http://www.w3.org/2000/svg">
<path d="M1.07617 10.407L151.136 10.4071" stroke="#CBCBCB" stroke-width="0.833666" stroke-linecap="round" stroke-dasharray="4.17 4.17"/>
<path d="M83.9206 4.11282L85.5962 8.00604L85.963 8.87306C86.0297 9.00644 86.2048 9.12316 86.3549 9.12316H88.9059C89.7062 9.12316 90.6566 9.71506 91.0234 10.432C91.1484 10.6821 91.1484 10.9822 91.0234 11.2323C90.6566 11.9409 89.6979 12.5329 88.8976 12.5329H86.3465C86.1965 12.5329 86.0214 12.6496 85.9547 12.783L83.9122 17.5348C83.6955 18.0601 83.0369 18.4852 82.47 18.4852H81.3695C80.6609 18.4852 80.3108 17.9517 80.5942 17.2931L82.395 13.1164C82.5367 12.7913 82.3616 12.5245 82.0031 12.5245H81.0778H79.5772C79.3854 12.5245 79.1103 12.6329 78.9769 12.7663L77.0345 14.7004C76.8344 14.9005 76.4426 14.9922 76.1591 14.9005L75.0253 14.5253C74.5335 14.3753 74.3001 13.8167 74.5335 13.3582L76.2008 11.3741C76.4593 11.0739 76.4593 10.5821 76.2008 10.282L74.5335 8.29783C74.3084 7.83931 74.5335 7.28075 75.0253 7.11402L76.1591 6.73887C76.4342 6.64717 76.8344 6.73887 77.0345 6.93895L78.9769 8.87306C79.1103 9.01478 79.3854 9.12316 79.5772 9.12316H82.0031C82.3616 9.12316 82.5283 8.86472 82.395 8.53125L80.5942 4.35459C80.3108 3.69599 80.6609 3.16244 81.3695 3.16244H82.47C83.0369 3.16244 83.6955 3.58761 83.9206 4.11282Z" fill="#1D91CC"/>
</svg>
