<svg width="27" height="27" viewBox="0 0 27 27" fill="none" xmlns="http://www.w3.org/2000/svg">
<path d="M10.0226 23.2537C9.80883 23.2537 9.59508 23.175 9.42633 23.0062C9.10008 22.68 9.10008 22.14 9.42633 21.8137L16.7613 14.4787C17.3013 13.9387 17.3013 13.0612 16.7613 12.5212L9.42633 5.18621C9.10008 4.85996 9.10008 4.31996 9.42633 3.99371C9.75258 3.66746 10.2926 3.66746 10.6188 3.99371L17.9538 11.3287C18.5276 11.9025 18.8538 12.6787 18.8538 13.5C18.8538 14.3212 18.5388 15.0975 17.9538 15.6712L10.6188 23.0062C10.4501 23.1637 10.2363 23.2537 10.0226 23.2537Z" fill="#606060"/>
</svg>
