<svg width="19" height="19" viewBox="0 0 19 19" fill="none" xmlns="http://www.w3.org/2000/svg">
<path d="M7.31453 12.1855C7.17203 12.1855 7.02953 12.133 6.91703 12.0205C6.69953 11.803 6.69953 11.443 6.91703 11.2255L11.162 6.98051C11.3795 6.76301 11.7395 6.76301 11.957 6.98051C12.1745 7.19801 12.1745 7.55801 11.957 7.77551L7.71203 12.0205C7.60703 12.133 7.45703 12.1855 7.31453 12.1855Z" fill="#868686"/>
<path d="M11.5595 12.1855C11.417 12.1855 11.2745 12.133 11.162 12.0205L6.91703 7.77551C6.69953 7.55801 6.69953 7.19801 6.91703 6.98051C7.13453 6.76301 7.49453 6.76301 7.71203 6.98051L11.957 11.2255C12.1745 11.443 12.1745 11.803 11.957 12.0205C11.8445 12.133 11.702 12.1855 11.5595 12.1855Z" fill="#868686"/>
<path d="M11.6875 17.5625H7.1875C3.115 17.5625 1.375 15.8225 1.375 11.75V7.25C1.375 3.1775 3.115 1.4375 7.1875 1.4375H11.6875C15.76 1.4375 17.5 3.1775 17.5 7.25V11.75C17.5 15.8225 15.76 17.5625 11.6875 17.5625ZM7.1875 2.5625C3.73 2.5625 2.5 3.7925 2.5 7.25V11.75C2.5 15.2075 3.73 16.4375 7.1875 16.4375H11.6875C15.145 16.4375 16.375 15.2075 16.375 11.75V7.25C16.375 3.7925 15.145 2.5625 11.6875 2.5625H7.1875Z" fill="#868686"/>
</svg>
