<svg width="28" height="28" viewBox="0 0 28 28" fill="none" xmlns="http://www.w3.org/2000/svg">
<path d="M14.0627 26.0927C19.9127 26.0927 24.6602 21.3339 24.6602 15.4952C24.6602 13.3914 24.0414 11.3552 22.8714 9.60017C22.6127 9.21767 22.0839 9.10517 21.7014 9.36392C21.3189 9.62267 21.2064 10.1514 21.4652 10.5339C22.4439 11.9964 22.9614 13.7177 22.9614 15.4839C22.9614 20.4002 18.9677 24.3939 14.0514 24.3939C9.13516 24.3939 5.14141 20.4002 5.14141 15.4839C5.14141 10.5677 9.14641 6.57392 14.0627 6.57392C15.0977 6.57392 16.1102 6.72017 17.0664 7.01267C17.5164 7.14767 17.9889 6.90017 18.1239 6.45017C18.2589 6.00017 18.0114 5.52767 17.5614 5.39267C16.4364 5.05517 15.2664 4.87517 14.0627 4.87517C8.21266 4.87517 3.46516 9.63392 3.46516 15.4727C3.46516 21.3114 8.21266 26.0927 14.0627 26.0927Z" fill="#404040"/>
<path d="M18.7089 7.32767C18.9002 7.32767 19.1027 7.26016 19.2602 7.12516C19.6202 6.81016 19.6539 6.28141 19.3502 5.93266L16.0989 2.19767C15.7952 1.84892 15.2552 1.80392 14.9064 2.11892C14.5577 2.42267 14.5239 2.96267 14.8277 3.31142L18.0789 7.03516C18.2477 7.22642 18.4839 7.32767 18.7089 7.32767Z" fill="#404040"/>
<path d="M14.9177 10.0952C15.0864 10.0952 15.2664 10.0389 15.4127 9.93767L19.2152 7.15892C19.5864 6.88892 19.6652 6.36017 19.3952 5.98892C19.1252 5.60642 18.5964 5.52767 18.2139 5.79767L14.4227 8.56517C14.0514 8.83517 13.9614 9.36392 14.2427 9.74642C14.4002 9.98267 14.6589 10.0952 14.9177 10.0952Z" fill="#404040"/>
<path d="M11.2978 19.6239C11.4027 19.6239 11.5076 19.5982 11.6044 19.5294L14.1062 17.9407C14.7276 17.5457 15.1877 16.6783 15.1877 15.914V12.393C15.1877 12.0409 14.9133 11.7489 14.5824 11.7489C14.2515 11.7489 13.9771 12.0409 13.9771 12.393V15.914C13.9771 16.2232 13.735 16.6783 13.4848 16.8329L10.983 18.4216C10.6925 18.602 10.6037 18.997 10.7732 19.3062C10.8942 19.5123 11.096 19.6239 11.2978 19.6239Z" fill="#404040"/>
</svg>
