<svg width="188" height="52" viewBox="0 0 188 52" fill="none" xmlns="http://www.w3.org/2000/svg">
<path d="M164.188 43.9134V44.5474H163.781C163.409 44.5474 163.373 44.5656 163.373 44.7739C163.373 44.9822 163.409 45.0003 163.781 45.0003H164.188V46.7213V48.4422H164.505H164.822V46.7213V45.0003H165.23C165.601 45.0003 165.637 44.9822 165.637 44.7739C165.637 44.5656 165.601 44.5474 165.23 44.5474H164.822V43.9134V43.2794H164.505H164.188V43.9134Z" fill="black"/>
<path d="M183.209 45.8608V48.4422H183.481H183.752V45.8608V43.2794H183.481H183.209V45.8608Z" fill="black"/>
<path d="M167.404 44.5203C167.313 44.5474 167.141 44.629 167.023 44.7014C166.833 44.8282 166.815 44.8282 166.815 44.6924C166.815 44.5927 166.733 44.5474 166.543 44.5474H166.271V46.4948V48.4422H166.534H166.797L166.833 46.9568C166.86 45.5347 166.869 45.4532 167.078 45.2358C167.195 45.109 167.404 44.9822 167.549 44.955C167.748 44.9098 167.811 44.8463 167.811 44.6743C167.811 44.4569 167.748 44.4388 167.404 44.5203Z" fill="black"/>
<path d="M169.867 44.5837C168.319 45.0003 167.829 46.9205 169.016 47.9621C169.351 48.261 170.085 48.5328 170.538 48.5328C171.027 48.5328 171.715 48.3335 171.969 48.1161C172.304 47.8353 172.34 47.8444 172.34 48.1705C172.34 48.415 172.367 48.4422 172.612 48.4422H172.884V46.4948V44.5475H172.621C172.385 44.5475 172.349 44.5837 172.322 44.8282L172.295 45.109L172.041 44.9098C171.516 44.4931 170.683 44.3663 169.867 44.5837ZM171.199 45.0003C171.326 45.0456 171.588 45.2358 171.788 45.417C172.485 46.0419 172.485 46.9477 171.779 47.5817C171.353 47.9712 171.09 48.0799 170.592 48.0799C169.876 48.0708 169.079 47.5274 168.935 46.9386C168.826 46.522 168.953 45.9242 169.215 45.58C169.641 45.0184 170.556 44.7558 171.199 45.0003Z" fill="black"/>
<path d="M179.377 44.5837C178.87 44.7195 178.571 44.9279 178.19 45.3989C177.955 45.6796 177.909 45.8336 177.882 46.3499C177.855 46.839 177.882 47.0383 178.036 47.3281C178.525 48.2882 179.73 48.7411 180.908 48.3969C181.333 48.2791 181.533 48.1523 181.895 47.781L182.348 47.31L182.003 47.2828C181.723 47.2556 181.623 47.2919 181.469 47.5002C181.016 48.0708 179.956 48.252 179.223 47.8716C178.806 47.6632 178.408 47.1832 178.408 46.8933C178.408 46.7303 178.525 46.7213 180.4 46.7213H182.393V46.3861C182.393 45.6253 181.75 44.8373 180.926 44.5927C180.373 44.4297 179.966 44.4297 179.377 44.5837ZM180.917 45.1C181.288 45.2811 181.759 45.8789 181.759 46.1597C181.759 46.2412 181.297 46.2684 180.083 46.2684C178.87 46.2684 178.408 46.2412 178.408 46.1597C178.408 46.1053 178.507 45.888 178.634 45.6796C179.051 44.955 180.083 44.6924 180.917 45.1Z" fill="black"/>
<path d="M185.491 44.629C184.983 44.8735 184.766 45.3173 184.92 45.8336C185.029 46.1959 185.31 46.3861 186.034 46.6216C186.569 46.7937 186.831 47.0473 186.831 47.4006C186.831 48.0165 185.971 48.3154 185.518 47.8625C185.4 47.7447 185.273 47.5364 185.237 47.4096C185.192 47.2285 185.128 47.1741 184.92 47.1741C184.612 47.1741 184.603 47.2194 184.802 47.7176C185.02 48.261 185.4 48.4875 186.061 48.4875C186.976 48.4784 187.465 48.0618 187.465 47.3009C187.465 46.839 187.04 46.4314 186.342 46.2321C185.799 46.0691 185.382 45.7521 185.382 45.4985C185.382 45.2358 185.799 44.9097 186.134 44.9097C186.451 44.9097 186.831 45.1815 186.831 45.4079C186.831 45.4985 186.922 45.5438 187.103 45.5438C187.402 45.5438 187.438 45.426 187.266 45.0547C187.03 44.5203 186.17 44.321 185.491 44.629Z" fill="black"/>
<path d="M174.315 46.4948C175.193 48.4422 175.193 48.4512 175.465 48.4241C175.719 48.3969 175.773 48.3063 176.615 46.5401C177.095 45.5166 177.494 44.6561 177.494 44.6108C177.503 44.5746 177.367 44.5474 177.213 44.5474C176.914 44.5474 176.914 44.5565 176.235 46.051C175.864 46.8752 175.529 47.5727 175.501 47.5908C175.474 47.6089 175.139 46.9386 174.759 46.1053C174.07 44.6018 174.07 44.5927 173.753 44.5656L173.445 44.5384L174.315 46.4948Z" fill="black"/>
<path d="M56.4346 25.6261H57.7455C59.1322 25.6261 60.1926 25.329 60.9267 24.7347C61.6725 24.1288 62.0453 23.2665 62.0453 22.1478C62.0453 20.9942 61.6841 20.1377 60.9617 19.5784C60.2508 19.0074 59.1672 18.722 57.7106 18.722H56.4346V25.6261ZM56.4346 39.6966H51.4531V14.2474H57.7805C59.3886 14.2474 60.6529 14.3347 61.5734 14.5095C62.5056 14.6843 63.2572 14.964 63.8282 15.3485C64.8769 16.0593 65.6984 16.9974 66.2927 18.1626C66.8987 19.3279 67.2016 20.5747 67.2016 21.9031C67.2016 24.3385 66.3976 26.2845 64.7895 27.7411C63.1815 29.1976 61.0141 29.9259 58.2874 29.9259H56.4346V39.6966Z" fill="#04C3F9"/>
<path d="M74.2261 29.9609C74.2261 31.7437 74.7155 33.1595 75.6943 34.2083C76.6731 35.2454 78.0015 35.7639 79.6795 35.7639C81.3341 35.7639 82.6509 35.2337 83.6297 34.1733C84.6202 33.1013 85.1154 31.6622 85.1154 29.856C85.1154 28.2363 84.5969 26.9079 83.5598 25.8708C82.5344 24.8221 81.2409 24.2977 79.6795 24.2977C78.0714 24.2977 76.7605 24.8279 75.7467 25.8883C74.7329 26.937 74.2261 28.2946 74.2261 29.9609ZM69.6116 29.9959C69.6116 28.6441 69.8563 27.3624 70.3457 26.1505C70.8468 24.927 71.5693 23.8433 72.5131 22.8994C73.4803 21.9322 74.5698 21.1923 75.7817 20.6796C76.9935 20.1552 78.252 19.893 79.5571 19.893C80.9438 19.893 82.2197 20.1261 83.385 20.5922C84.5619 21.0466 85.6398 21.7342 86.6186 22.6547C87.6207 23.6219 88.3956 24.7405 88.9433 26.0107C89.491 27.2691 89.7648 28.5626 89.7648 29.891C89.7648 31.3592 89.5259 32.6993 89.0482 33.9111C88.5704 35.123 87.8538 36.2183 86.8983 37.1972C85.9427 38.1876 84.8532 38.9392 83.6297 39.4519C82.4062 39.953 81.0778 40.2035 79.6445 40.2035C78.1996 40.2035 76.8828 39.9472 75.6943 39.4345C74.5057 38.9217 73.422 38.1527 72.4432 37.1272C71.511 36.1251 70.806 35.024 70.3283 33.8237C69.8505 32.6119 69.6116 31.3359 69.6116 29.9959Z" fill="#04C3F9"/>
<path d="M108.57 27.3041C108.034 26.302 107.346 25.5504 106.508 25.0493C105.68 24.5483 104.696 24.2977 103.554 24.2977C102.039 24.2977 100.769 24.8454 99.7432 25.9407C98.7294 27.0361 98.2225 28.4111 98.2225 30.0658C98.2225 31.6971 98.741 33.0547 99.7781 34.1384C100.827 35.222 102.138 35.7639 103.711 35.7639C104.923 35.7639 105.931 35.5075 106.735 34.9948C107.539 34.4705 108.139 33.6897 108.535 32.6526H113.307C112.724 35.0065 111.588 36.8534 109.898 38.1935C108.209 39.5335 106.158 40.2035 103.746 40.2035C102.324 40.2035 101.007 39.953 99.7956 39.4519C98.5837 38.9392 97.4884 38.1876 96.5096 37.1972C95.6007 36.265 94.8899 35.1754 94.3771 33.9286C93.8644 32.6701 93.6081 31.3942 93.6081 30.1007C93.6081 28.749 93.8411 27.4847 94.3072 26.3078C94.7733 25.1309 95.4608 24.0705 96.3697 23.1266C97.3719 22.0663 98.5022 21.2622 99.7606 20.7146C101.019 20.1669 102.371 19.893 103.816 19.893C106.17 19.893 108.209 20.5631 109.933 21.9031C111.658 23.2432 112.794 25.0435 113.342 27.3041H108.57Z" fill="#04C3F9"/>
<path d="M122.901 39.6966H118.583V14.2474H122.901V29.3841L129.141 20.4698H134.192L127.533 29.5938L135.503 39.6966H129.892L122.901 29.9259V39.6966Z" fill="#04C3F9"/>
<path d="M151.931 27.9508C151.546 26.669 150.9 25.696 149.991 25.0318C149.094 24.356 147.957 24.0181 146.582 24.0181C145.394 24.0181 144.328 24.3793 143.384 25.1018C142.44 25.8242 141.805 26.7739 141.479 27.9508H151.931ZM141.321 31.499C141.473 32.8857 142.02 33.981 142.964 34.7851C143.92 35.5775 145.149 35.9736 146.652 35.9736C147.654 35.9736 148.552 35.7639 149.344 35.3444C150.148 34.9249 150.783 34.3365 151.249 33.579H156.074C155.258 35.6765 154.034 37.3079 152.403 38.4731C150.783 39.6267 148.907 40.2035 146.775 40.2035C145.341 40.2035 144.019 39.953 142.807 39.4519C141.607 38.9392 140.529 38.1876 139.573 37.1972C138.665 36.2533 137.96 35.1638 137.458 33.9286C136.957 32.6818 136.707 31.4058 136.707 30.1007C136.707 28.7607 136.934 27.5022 137.389 26.3253C137.855 25.1367 138.536 24.0705 139.434 23.1266C140.412 22.0896 141.519 21.2914 142.755 20.732C143.99 20.1727 145.266 19.893 146.582 19.893C148.249 19.893 149.804 20.2718 151.249 21.0292C152.694 21.7866 153.924 22.8528 154.937 24.2278C155.555 25.0551 156.009 25.9815 156.301 27.007C156.604 28.0324 156.755 29.2093 156.755 30.5377C156.755 30.6426 156.749 30.8057 156.738 31.0271C156.726 31.2369 156.72 31.3942 156.72 31.499H141.321Z" fill="#04C3F9"/>
<path d="M163.08 39.6966V24.455H160.144V20.4698H163.08V14.2474H167.555V20.4698H170.509V24.455H167.555V39.6966H163.08Z" fill="#04C3F9"/>
<path d="M177.743 33.3168V33.579C177.743 34.4297 177.959 35.123 178.39 35.659C178.821 36.1834 179.38 36.4456 180.068 36.4456C180.72 36.4456 181.251 36.2475 181.658 35.8513C182.078 35.4551 182.288 34.9482 182.288 34.3306C182.288 33.7596 182.136 33.2935 181.833 32.9323C181.53 32.5594 180.988 32.1865 180.208 31.8137C179.765 31.6156 179.112 31.3417 178.25 30.9922C177.388 30.6426 176.834 30.3687 176.59 30.1706C175.879 29.588 175.354 28.9413 175.016 28.2305C174.679 27.508 174.51 26.6865 174.51 25.766C174.51 24.1462 175.075 22.7771 176.205 21.6584C177.347 20.5398 178.728 19.9804 180.348 19.9804C182.06 19.9804 183.412 20.4757 184.403 21.4661C185.405 22.4566 185.952 23.8433 186.046 25.6261H182.025V25.5213C182.025 24.9037 181.862 24.4201 181.536 24.0705C181.221 23.7209 180.779 23.5461 180.208 23.5461C179.707 23.5461 179.287 23.7209 178.949 24.0705C178.623 24.4084 178.46 24.8337 178.46 25.3465C178.46 26.1854 179.322 26.9662 181.047 27.6886C181.501 27.8751 181.851 28.0207 182.095 28.1256C183.75 28.8714 184.88 29.6754 185.486 30.5377C186.092 31.3883 186.395 32.5419 186.395 33.9985C186.395 35.793 185.789 37.2787 184.577 38.4556C183.366 39.6209 181.839 40.2035 179.998 40.2035C178.145 40.2035 176.648 39.586 175.506 38.3508C174.376 37.1156 173.758 35.4434 173.653 33.3343L177.743 33.3168Z" fill="#04C3F9"/>
<path d="M71.6633 0.0991039C69.4985 0.597267 66.6998 2.30914 63.3757 5.16226C61.3468 6.91036 56.0391 12.4445 56.0391 12.8068C56.0391 12.8702 56.0934 12.9246 56.1659 12.9246C56.2383 12.9246 56.3561 12.9517 56.4285 12.9789C56.5191 13.0061 57.0535 12.4898 58.0408 11.4119C62.4518 6.61146 66.2378 3.36887 69.3536 1.71134C71.2285 0.715015 72.8589 0.407059 73.819 0.868994C75.7301 1.79286 75.6486 5.59702 73.5835 11.258C72.7683 13.5042 72.0165 15.1799 70.4224 18.341L68.9007 21.3662L69.0457 21.6469C69.1906 21.9187 69.1996 21.9187 69.3264 21.7466C69.7884 21.1216 71.7539 17.3356 72.6506 15.3339C75.4493 9.09322 76.4457 4.35614 75.5037 1.83815C75.2591 1.16789 74.6432 0.506693 74.0454 0.244024C73.4567 -0.0186443 72.4332 -0.0729885 71.6633 0.0991039Z" fill="black"/>
<path d="M6.42237 25.9221C2.92616 33.3765 0.0277554 39.5356 0.000582826 39.6262C-0.0356473 39.7077 1.62188 38.0773 3.67794 36.0031L7.41869 32.2171H12.826H18.2334L22.7621 35.7586C25.2439 37.6969 27.3452 39.3635 27.4268 39.4631C27.5083 39.5537 27.626 39.6352 27.6985 39.6443C27.771 39.6533 28.8579 39.6624 30.1168 39.6533L32.3993 39.6443V30.1792V20.714H29.9538H27.5083L27.4902 29.8169L27.463 38.9287L20.1807 25.6504C16.1683 18.35 12.8713 12.3811 12.8442 12.3811C12.817 12.3811 9.92763 18.4768 6.42237 25.9221ZM12.9257 27.9782L14.9274 29.2734L12.3279 29.3006C10.8968 29.3096 9.71025 29.3006 9.68308 29.2734C9.6559 29.2553 9.828 28.73 10.0725 28.1231C10.308 27.5072 10.5345 26.9094 10.5798 26.7916C10.6341 26.6648 10.7156 26.6014 10.7881 26.6286C10.8606 26.6558 11.8207 27.2626 12.9257 27.9782Z" fill="black"/>
<path d="M27.5078 16.7287V18.8119H29.9533H32.3989V16.7287V14.6455H29.9533H27.5078V16.7287Z" fill="black"/>
<path d="M46.3307 20.5329C45.0083 20.7593 43.7493 21.3662 42.8255 22.2176C42.4813 22.5346 42.1733 22.7973 42.1461 22.7973C42.119 22.7973 42.0918 22.3263 42.0918 21.7557V20.714H39.7368H37.3819V30.1792V39.6443H38.2876H39.1843L38.976 40.2058C37.3185 44.6259 36.8203 48.1855 37.5721 50.1872C37.8166 50.8484 38.4326 51.5187 39.0303 51.7904C39.4379 51.9716 39.6463 52.0078 40.4162 51.9987C41.186 51.9987 41.4487 51.9534 42.1552 51.7089C46.5753 50.1963 52.825 44.6893 59.3554 36.5194C60.9224 34.563 62.9603 31.8276 63.069 31.5378C63.1052 31.4381 63.0328 31.42 62.7701 31.4291C62.444 31.4563 62.3806 31.5106 61.6742 32.4435C56.3121 39.5356 52.0822 44.1277 47.635 47.6873C43.9576 50.622 40.8328 51.9172 39.2568 51.1564C37.3638 50.2416 37.4362 46.4283 39.4379 40.9033L39.8818 39.6896L41.1679 39.6624L42.4541 39.6352V36.8183V33.9924L43.3146 32.3892C44.6279 29.9165 45.434 28.5669 48.2781 24.0472C48.5226 23.6577 48.5317 23.6124 48.3958 23.4766C48.3143 23.3951 48.2509 23.2773 48.2509 23.223C48.2418 23.1596 48.1241 23.2592 47.9792 23.4313L47.7075 23.7393V22.0908V20.4423L47.2365 20.4514C46.9738 20.4604 46.5662 20.4967 46.3307 20.5329ZM46.4937 25.6232C45.6423 26.9456 44.2656 29.2553 43.2512 31.0849L42.445 32.5341L42.4813 30.3603C42.5175 28.6937 42.5628 28.0597 42.6805 27.6521C43.0519 26.3478 43.5048 25.7591 44.5645 25.2428C45.28 24.8986 46.2583 24.6359 46.8651 24.6178L47.1549 24.6088L46.4937 25.6232Z" fill="black"/>
</svg>
